<?xml version="1.0" standalone="no"?>
<!DOCTYPE svg PUBLIC "-//W3C//DTD SVG 1.1//EN" "http://www.w3.org/Graphics/SVG/1.1/DTD/svg11.dtd">
<svg xmlns="http://www.w3.org/2000/svg">
<metadata>Copyright (C) 2015 by original authors @ fontello.com</metadata>
<defs>
<font id="fontello" horiz-adv-x="1000" >
<font-face font-family="fontello" font-weight="400" font-stretch="normal" units-per-em="1000" ascent="850" descent="-150" />
<missing-glyph horiz-adv-x="1000" />
<glyph glyph-name="T" unicode="&#xe800;" d="m737 396h-4c-60 0-115-32-153-80-90 66-203 70-341 77 103-19 207-69 274-148-18-11-52-36-70-59-88 138-168 205-316 205v18c148 0 228 67 316 205 18-23 52-48 70-59-67-79-171-129-274-148 138 7 251 11 341 77 38-48 93-80 153-80h4v-8z m-707-103c0 44 31 69 85 69 154 0 229-175 211-311h-8c-3 33-58 78-89 86 42 77-11 206-102 206-12 0-14-13-14-24 0-9 2-17 2-29 0-23-18-41-41-40-28 1-44 20-44 43z m0 214c0 23 16 42 44 43 23 1 41-17 41-40 0-12-2-20-2-29 0-11 2-24 14-24 91 0 144 129 102 206 31 8 86 53 89 86h8c18-136-57-311-211-311-54 0-85 25-85 69z" horiz-adv-x="767" />
<glyph glyph-name="U" unicode="&#xe801;" d="m30 428v13c160 25 274 158 341 296l115-117c-121-118-285-177-456-192z m0-69v13c171-15 335-74 456-192l-115-117c-67 138-181 271-341 296z m741 37c-95-8-198-14-268-84-70 59-163 74-252 76l-221 4v16l221 4c89 2 182 17 252 76 70-70 173-76 268-84v-8z" horiz-adv-x="801" />
<glyph glyph-name="V" unicode="&#xe802;" d="m725 50h-54c-5 0-9 4-9 11 0 33 23 55 54 55 7 0 9-4 9-9v-57z m-694 236c-1 15 7 17 11 3 30-105 150-136 247-136 114 0 243-10 341-75 6-4 0-10-5-8-139 67-244-20-374-20-116-1-211 101-220 236z m166 275c8 10 16 9 11-4-8-22-11-37-11-60 0-193 338-212 452-386 5-7-1-15-7-8-137 177-497 20-497 320 0 52 28 108 52 138z m240 136c10 6 17 0 10-8-22-29-31-66-31-101 0-186 219-280 266-445 2-7-6-8-8-3-72 162-354 197-354 390 0 81 58 129 117 167z m290 59c-64-48-87-128-87-205 0-120 85-221 85-339 0-21-1-35-4-55-1-6-8-6-8 1 0 147-179 218-179 364 0 143 96 203 187 241 6 3 9-5 6-7z" horiz-adv-x="759" />
<glyph glyph-name="W" unicode="&#xe803;" d="m128 73c35-6 71-10 106-5 229 30 268 264 500 240 66-7 135-51 139-122 7-113-60-134-127-134-35 0-72 12-90 38-4 6 0 13 6 7 22-21 40-24 70-24 28 0 54 14 54 49 0 46-48 58-87 58-198 0-257-134-456-131-46 0-91 8-117 15-7 2-3 10 2 9z m286 295c143 191 271 140 398 34 6-5 2-13-5-9-33 19-67 24-99 24-173 0-255-271-587-323-8-1-10 7-3 9 140 34 217 159 296 265z m-327-242c249 180 87 581 342 581 111 0 125-121 191-121 25 0 43 17 43 6 0-38-31-58-54-58-88 0-55 105-131 105-118 0-60-300-386-522-4-3-14 3-5 9z m-35 407c0 104 53 174 182 231 9 4 15-5 6-10-67-37-78-124-77-199 2-175-7-296-102-405-7-8-15-2-8 7 27 35 33 85 33 131-1 84-34 162-34 245z m32-483h-54v57c0 5 2 9 9 9 31 0 54-22 54-55 0-7-4-11-9-11z" horiz-adv-x="904" />
<glyph glyph-name="X" unicode="&#xe804;" d="m772 282c0 21 17 38 38 38s38-17 38-38-17-38-38-38c-12 0-22 5-29 13l-18-5c54-54 94-116 119-180h9c29 0 80 25 101 63 41-49 88-75 135-75h11v-10h-1108v700h10v-11c0-47 26-94 75-135-36-20-61-67-63-97v-6c91-1 175-10 253-25l12 18c-6 7-10 17-10 27 0 21 17 38 38 38s38-17 38-38-17-38-38-38h-7l-8-12c72-15 139-36 198-62l43 29c20 22 38 66 40 95 54-5 107 1 146 28l9 6 7-9-9-6c-39-27-65-73-78-126-28 8-72 6-100-4l-35-24c76-35 141-79 194-128l27 8v4z m88-210c-24 62-64 121-118 174l-620-174h738z m-137 192c-52 47-117 87-192 121l-426-294z m-431 193c-74 13-154 21-240 22v-381z m216-62c-58 23-122 43-191 57l-233-348z" horiz-adv-x="1168" />
<glyph glyph-name="Y" unicode="&#xe805;" d="m698 95h390c-1 5-2 9-2 14 0 30 24 52 51 52 31 0 54-21 54-52 0-32-21-59-72-59h-1023v597c-5-1-9-2-14-2-31 0-52 24-52 51 0 31 21 54 52 54 32 0 59-21 59-72v-70c297-20 533-238 557-513z m-45 0c-24 249-241 448-512 468v-162c183-18 327-145 350-306h162z m-207 0c-23 137-147 244-305 261v-261h305z m448 133l-170-106 127 141z m-643 18c18-10 35-22 50-36l-126-81z m71-58c15-18 27-38 35-59h-143z m635-12l-183-54 146 84z m-114-54l140 33 40-33h-180z m-668 154c17-5 35-10 51-17l-51-91v108z m351-100c0 16 12 29 28 29s29-13 29-29-13-28-29-28-28 12-28 28z m-197 230c0 16 12 29 28 29s29-13 29-29-13-28-29-28-28 12-28 28z m119-100c0 16 12 29 28 29s29-13 29-29-13-28-29-28-28 12-28 28z m-259 162c0 16 12 29 28 29s29-13 29-29-13-28-29-28-28 12-28 28z" horiz-adv-x="1221" />
<glyph glyph-name="Z" unicode="&#xe806;" d="m30 88v624h624v-624h-624z m42 582v-540h540v540h-540z m37-503v466h466v-466h-466z m14 233c0-121 98-219 219-219s219 98 219 219-98 219-219 219-219-98-219-219z m269 134c0-35-11-69-29-96 4-3 8-6 11-10 31-2 63 24 81 48-7 3-15 8-20 13-8 9-20 28-4 43 14 14 35 7 47-5 21-20 17-46-6-67-25-26-56-43-89-48 1-5 2-10 2-15 19-23 61-27 90-22-2 6-4 15-4 22 0 12 5 33 28 33 19 0 29-19 29-36 0-29-20-44-52-44-35 0-69 10-96 29-3-5-6-8-10-12-2-30 24-62 48-80 3 7 8 15 13 20 9 8 28 19 43 4 14-14 7-35-5-47-20-21-46-17-67 6-26 25-43 56-48 89-5-2-10-3-15-2-23-20-27-62-22-90 6 2 15 4 22 4 12 0 33-5 33-28 0-19-19-29-36-29-29 0-44 20-44 52 0 34 10 69 29 96-5 2-8 6-12 10-30 2-62-25-80-48 7-3 15-8 20-13 8-9 19-28 4-43-14-14-35-7-47 5-21 20-17 46 6 67 25 25 56 42 89 48-2 5-2 10-2 14-20 23-62 28-90 23 2-6 4-15 4-22 0-12-5-33-28-33-19 0-29 19-29 36 0 29 20 44 52 44 34 0 69-11 96-29 2 4 6 8 10 11 2 31-25 63-48 81-3-7-8-15-13-20-9-8-28-20-43-4-14 14-7 35 5 47 20 21 46 17 67-6 25-25 42-56 48-89 5 2 10 2 14 2 23 19 28 61 23 90-6-2-15-4-22-4-12 0-33 5-33 28 0 19 19 29 36 29 29 0 44-20 44-52z m-274-358c17 0 38 14 47 30 18-16 46-30 72-30 0 21-36 49-70 49 0 34-28 70-49 70 0-26 14-54 30-72-16-9-30-30-30-47z m448 0c0 17-14 38-30 47 16 18 30 46 30 72-21 0-49-36-49-70-34 0-70-28-70-49 26 0 54 14 72 30 9-16 30-30 47-30z m-448 448c0-17 14-38 30-47-16-18-30-46-30-72 21 0 49 36 49 70 34 0 70 28 70 49-26 0-54-14-72-30-9 16-30 30-47 30z m448 0c-17 0-38-14-47-30-18 16-46 30-72 30 0-21 36-49 70-49 0-34 28-70 49-70 0 26-14 54-30 72 16 9 30 30 30 47z" horiz-adv-x="684" />
<glyph glyph-name="n" unicode="&#xe807;" d="m233 400c0 78 63 142 141 142s142-64 142-142-64-141-142-141-141 63-141 141z m82 286c0 32 26 58 59 58s59-26 59-58c0-34-26-60-59-60s-59 26-59 60z m118-571c0-34-26-58-59-58s-59 24-59 58 26 60 59 60 59-26 59-60z m226 344c32 0 58-28 58-59 0-33-26-59-58-59-34 0-60 26-60 59 0 31 26 59 60 59z m-571-118c-34 0-58 26-58 59 0 31 24 59 58 59s60-28 60-59c0-33-26-59-60-59z" horiz-adv-x="747" />
<glyph glyph-name="o" unicode="&#xe808;" d="m295 132v119c13-6 28-9 44-11v106c-6 1-11 3-15 6l-76-76c12-10 25-18 40-24l-85-83c-22-23-56-20-79 1-23 24-25 58-3 81l83 85c6-15 14-28 24-40l76 76c-3 4-5 9-6 15h-106c2-16 5-32 11-45h-119c-32 0-54 24-54 58s22 57 54 57h119c-6-14-9-29-11-44h106c1 5 3 10 6 14l-76 76c-10-11-18-25-24-39l-82 84c-23 23-20 57 2 80 23 22 57 24 79 2l85-82c-15-7-28-15-40-25l75-76c5 3 10 5 16 6v107c-16-1-31-5-44-10v118c0 32 23 54 57 54s58-22 58-54v-119c-14 5-30 10-45 11v-107c5-1 10-3 15-5l76 76c-12 10-25 17-39 24l83 82c23 22 57 19 80-3 22-23 24-56 2-79l-82-85c-7 15-15 28-25 40l-75-75c2-5 4-10 5-15h107c-1 15-5 30-10 44h118c32 0 54-23 54-57s-22-58-54-58h-119c5 13 10 29 11 45h-107c-1-6-3-11-6-16l76-75c10 11 18 24 25 39l82-84c23-22 21-56-1-79-24-23-58-25-81-3l-85 83c14 6 28 14 40 24l-76 76c-5-3-9-5-14-6v-106c15 2 31 5 45 11v-119c0-32-24-54-58-54s-57 22-57 54z" horiz-adv-x="704" />
<glyph glyph-name="p" unicode="&#xe809;" d="m357 727c27 1 62-6 62-42 0-30-13-68-62-203-49 135-62 173-62 203 0 36 35 43 62 42z m-37-326c0 21 16 38 37 38s38-17 38-38-17-37-38-37-37 16-37 37z m37-326c-27 0-62 7-62 43 0 30 13 68 62 203 49-135 62-173 62-203 0-36-35-43-62-43z m-327 326c0 27 7 62 43 62 30 0 68-13 203-62-135-49-173-62-203-62-36 0-43 35-43 62z m652 0c1-27-6-62-42-62-30 0-68 13-203 62 135 49 173 62 203 62 36 0 43-35 42-62z m-555 230c18 21 48 41 73 14 22-20 39-56 99-186-129 61-166 78-186 99-26 25-6 56 14 73z m459-459c-17-20-48-40-73-14-21 20-38 57-99 186 130-60 166-77 186-99 27-25 7-55-14-73z m-459 0c-20 17-40 48-14 73 20 21 57 38 186 99-60-130-77-166-99-186-25-27-55-7-73 14z m459 459c21-18 41-49 14-73-20-22-56-39-186-99 61 129 78 166 99 186 25 26 56 6 73-14z" horiz-adv-x="713" />
<glyph glyph-name="q" unicode="&#xe80a;" d="m354 459c-54 56-120 114-120 188 0 38 22 76 62 76 26 0 43-15 58-31 15 16 32 31 58 31 40 0 62-38 62-76 0-74-66-132-120-188z m-27-60c0 17 10 27 27 27s27-10 27-27-10-27-27-27-27 10-27 27z m27-60c54-56 120-114 120-188 0-38-22-76-62-76-26 0-43 15-58 31-15-16-32-31-58-31-40 0-62 38-62 76 0 74 66 132 120 188z m-60 60c-56-54-114-120-188-120-38 0-76 22-76 62 0 26 15 43 31 58-16 15-31 32-31 58 0 40 38 62 76 62 74 0 132-66 188-120z m120 0c56 54 114 120 188 120 38 0 76-22 76-62 0-26-15-43-31-58 16-15 31-32 31-58 0-40-38-62-76-62-74 0-132 66-188 120z" horiz-adv-x="708" />
<glyph glyph-name="r" unicode="&#xe80b;" d="m138 591c0 14 12 26 26 26s26-12 26-26c0-6-2-11-5-16l92-117c9 6 20 10 32 11v23c0 51-25 103-60 131 32 33 62 68 62 117v17h8v-17c0-49 30-84 62-117-35-28-60-80-60-131v-23c11-1 22-5 31-11l93 117c-3 5-5 10-5 16 0 14 12 26 26 26s26-12 26-26-12-26-26-26c-4 0-8 1-12 3l-92-118c12-11 20-27 22-44h27c35 0 69 31 84 57 18-32 55-59 94-59h11v-8h-11c-39 0-76-27-94-59-15 26-49 57-84 57h-27c-2-18-10-33-22-45l92-117c4 2 8 3 12 3 14 0 26-12 26-26s-12-26-26-26-26 12-26 26c0 5 2 11 5 15l-93 118c-9-6-20-10-31-11v-23c0-51 25-103 60-131-32-33-62-68-62-117v-17h-8v17c0 49-30 84-62 117 35 28 60 80 60 131v23c-12 1-23 5-32 11l-92-118c3-4 5-10 5-15 0-14-12-26-26-26s-26 12-26 26 12 26 26 26c4 0 8-1 11-3l92 118c-12 11-20 27-21 44h-27c-35 0-69-31-84-57-18 32-55 59-94 59h-11v8h11c39 0 76 27 94 59 15-26 49-57 84-57h27c1 17 9 32 21 44l-92 118c-3-2-7-3-11-3-14 0-26 12-26 26z" horiz-adv-x="630" />
<glyph glyph-name="s" unicode="&#xe80c;" d="m349 702c7 14 22 22 37 22 27 0 45-26 45-50 0-8-2-15-5-22-2-4-1-6 2-7 18-7 26-24 26-40 0-17-8-39-30-39-2 0-3-2-3-3 0-20-10-38-27-49-17-13-39-9-55 2-2 1-3 1-5 0-7-7-15-13-26-13-23-1-42 17-42 41 0 4-2 8-5 10-47-66-75-149-75-230 0-34 5-69 16-101 3 20 18 71 35 105-15 2-23 18-23 31 0 70 60 101 117 101h12c5 0 10 1 15 1 31 0 69-9 69-41 0-2-1-3-5-3-75 0-49-141-130-141-21 0-36 19-40 40-20-27-35-68-35-103 0-8 0-15 2-22 7-30 42-82 62-101-8-8-30-24-39-24-49 52-65 132-73 203-2 26-18 74-48 74-39 0-54-52-56-81 0-3-2-8-6-2-22 31-28 64-28 107 0 32 31 58 64 58 40 0 61-45 74-78 6 18 6 47 6 72 0 38-4 122-43 122-12 0-21-15-21-25 0-15 7-30 25-30 6 0 12 7 15 3 3-5-11-13-21-13-17 0-32 15-32 36 0 23 14 42 38 42 43 0 51-70 54-114 15 49 38 83 59 120-20 7-34 29-34 53 0 22 14 37 40 42 3 1 3 2 3 4-1 4-2 8-2 12 0 25 25 48 49 48 15 0 30-6 39-17 1-2 4-3 5 0z m-63-343c3 4 5 8 11 18 9 13 24 24 30 31 2 2 2 3-1 2-12-5-23-16-31-24-7-7-13-16-16-23-1-4 5-6 7-4z m32 231c-5 3-9-16-10-20-4-10-9-23-10-27-1-6 1-3 3-1 4 3 5 8 8 13 5 8 7 19 11 28 1 3 1 5-2 7z m29-7c0-1 1-5 4-7 4-3 14-23 16-26 2-2 4-5 7-6 2-1 4 1 2 3-4 6-9 13-12 19-1 6-6 20-13 20-3 0-4-1-4-3z m27 20c11-2 16-1 34-4 2 0 2 2 1 3-5 5-13 6-16 6-3 1-9 3-16 3-4 0-9 1-9-3s3-4 6-5z m-45 19c0-7 2-9 8-9 4 0 9 3 9 7 0 5-3 10-8 10-4 0-9-3-9-8z m-30 1c-11 0-30-4-42-4-4 0-4-4 0-4 13 0 27 1 40 1 6 0 5 7 2 7z m92 52c-6-5-10-10-17-16-6-6-12-11-14-17-1-5 2-7 3-5 5 5 17 17 22 24 2 3 6 9 7 11 2 2 1 4-1 3z m-97 0c6-13 13-22 19-33 1-2 3-4 5-4s3 5 1 8c-7 8-14 21-21 31-2 2-6 2-4-2z" horiz-adv-x="484" />
<glyph glyph-name="t" unicode="&#xe80d;" d="m173 614c0-4 4-5 7-5 2 0 6 1 11 4-8 0-13 6-16 6-2 0-2-4-2-5z m175 13c3-1 1-5-1-5h-8c-33 0-89-7-108-30-5-21 4-25 20-32 12-5 22-20 22-35s-10-22-10-26c0-140-168-161-208-280 22 37 57 39 80 63 26 27 51 69 90 73 66 7 65-7 100 28 3 3 7-2 6-6-29-58-49-131-135-131-17 0-36 6-57 6-31 0-78-20-78-67 0-40 43-70 70-95-1-8-26-23-43-26-33 34-58 76-58 123 0 39 17 72 43 99 11 11 9 32 9 47 0 34-44 55-44 88 0 34 15 65 15 101 0 12-5 20-5 32 0 3 4 5 5 2 24-55 98-85 98-132 0-32-30-56-46-81-7-11-5-25-7-35 66 53 149 97 149 175 0 4 0 7-2 11-10 7-23 15-31 25-15 19 2 35-22 53-21 0-60-43-78-61-1-1-5-2-5 1 0 29 19 60 41 79 2 1-1 3-4 3-22-2-50-12-72-12-14 0-26 9-26 21 0 19 24 21 36 21 23 0 47-11 68-11 4 0 5 3 3 5-5 4-33 25-38 30-9 9-14 16-14 29 0 10 3 23 16 23s21-5 29-14c5-6 12-18 17-24 2-2 3-2 2 1-4 11-17 29-17 41 0 11 2 22 19 22 21 0 31-23 37-45 1-5 6-25 6-30 0-6 2-6 3-1 3 8 8 22 11 34 5 17 18 32 33 32 9 0 19-7 19-18 0-17-4-28-13-38-3-4-14-16-17-23-1-2-1-4 2-3 13 3 23 6 44 6 22 0 34-7 54-13z m-163-341c-1-3 1-4 4-3 11 4 29 10 37 15 8 3 23 12 26 15 2 3 0 4-2 3s-9-5-15-7c-15-7-25-11-39-16-4-1-9-4-11-7v0z m-106 182c3-11 6-14 12-38 3-12 3-26 3-39 0-4 8-5 8 0 0 12 0 25-4 37-5 17-10 29-17 41-2 5-3 6-2-1z m102 158c0-3 5-4 15-10-5 9-4 16-9 16-4 0-6-2-6-6z m20 8c-3-2 3-7-1-18 8 7 11 10 9 15-1 3-4 5-8 3z" horiz-adv-x="380" />
<glyph glyph-name="A" unicode="&#xe80f;" d="m113 317c-46 0-83 37-83 83s37 83 83 83c25 0 44-11 57-28 117 52 219 138 294 245 28-25 56-46 85-63-101-84-245-153-346-197 141 25 287 58 398 157 32-27 64-47 107-67-155-66-329-97-498-118l230 5c116 3 221 20 329 59 32-27 68-51 108-76-40-25-76-49-108-76-108 39-213 56-329 59l-230 5c169-21 343-52 498-118-43-20-75-40-107-67-111 99-257 132-398 157 101-44 245-113 346-197-29-17-57-38-85-63-75 107-177 193-294 245-13-17-32-28-57-28z" horiz-adv-x="907" />
<glyph glyph-name="B" unicode="&#xe810;" d="m178 404c190 0 230 56 329 56 67 0 116-45 179-56v-8c-63-11-112-56-179-56-99 0-139 56-329 56v8z m-11 26l-2 7c156 44 257 85 314 175 28-13 54-29 78-47-80-83-288-111-390-135z m-22 38l-3 7c107 48 153 109 194 190 29-8 58-17 86-28-55-65-158-127-277-169z m-48 15l-6 5c73 56 86 129 95 205 27-3 55-7 83-13-30-84-98-149-172-197z m-65-83c0 31 25 57 56 57s57-26 57-57-26-56-57-56-56 25-56 56z m7 81l-6 5c43 58 33 150-3 212 28 2 58 1 89 0-5-77-24-150-80-217z m126-118l2 7c102-24 310-52 390-135-24-18-50-34-78-47-57 90-158 131-314 175z m-23-38l3 7c119-42 222-104 277-169-28-11-57-20-86-28-41 81-87 142-194 190z m-51-13l6 5c74-48 142-113 172-197-28-6-56-10-83-13-9 76-22 149-95 205z m-58 2l6 5c56-67 75-140 80-217-31-1-61-2-89 0 36 62 46 154 3 212z" horiz-adv-x="716" />
<glyph glyph-name="C" unicode="&#xe811;" d="m81 400c0 108-14 229-51 327 163-178 507-222 507-124 0 23-13 33-32 27 8-21-6-44-28-44-24 0-37 19-37 46 0 31 27 52 58 52 40 0 75-24 75-78 0-183-353-76-460 15 14-55 23-111 25-174 68-24 169-33 268-33 101 0 201 19 266 87 77-100 307-93 323-96v-10c-16-3-246 4-323-96-65 68-165 87-266 87-99 0-200-9-268-33-2-64-11-119-25-174 107 91 460 198 460 15 0-54-35-78-75-78-31 0-58 21-58 52 0 27 13 46 37 46 22 0 36-23 28-44 19-6 32 4 32 27 0 98-344 54-507-124 37 98 51 219 51 327z" horiz-adv-x="1025" />
<glyph glyph-name="D" unicode="&#xe812;" d="m422 400l141-107c26-20 35-43 35-63 0-32-23-51-50-51-30 0-50 22-50 49 0 16 5 29 12 42-2 7-10 16-18 24l-97 86-65-52c48-9 98-49 98-125 0-58-37-116-104-116-69 0-105 47-105 100 0 34 9 62 22 86-64-25-92-104-101-186l-110 72v482l110 72c9-82 37-161 101-186-13 24-22 52-22 86 0 53 36 100 105 100 67 0 104-58 104-116 0-76-50-116-98-125l65-52 97 86c8 8 16 17 18 24-7 13-12 26-12 42 0 27 20 49 50 49 27 0 50-19 50-51 0-20-9-43-35-63z m-224 4v-8c-30-8-46-28-53-72-7 19-19 29-31 29-17 0-22-9-22-24v-176l36-26c14 89 54 204 166 204l77 69-77 69c-112 0-152 115-166 204l-36-26v-176c0-15 5-24 22-24 12 0 24 10 31 29 7-44 23-64 53-72z m180-112c1-31-3-56-33-73-6 28-23 62-55 62-31-23-56-65-56-102 8 5 29 13 46 13 5 0 10-1 14-3-2-11-5-17-5-29 1-22 11-41 40-41 50 0 81 40 81 98 0 30-13 58-32 75z m0 216c19 17 32 45 32 75 0 58-31 98-81 98-29 0-39-19-40-41 0-12 3-18 5-29-4-2-9-3-14-3-17 0-38 8-46 13 0-37 25-79 56-102 32 0 49 34 55 62 30-17 34-42 33-73z m387-108c0-30-22-47-50-47-65 0-151 28-219 47 68 19 154 47 219 47 28 0 50-17 50-47z" horiz-adv-x="795" />
<glyph glyph-name="E" unicode="&#xe813;" d="m260 400c-74 8-142 73-142 150 0 83 54 142 140 142 89 0 157-113 292-113 38 0 72 14 103 30 25-22 59-37 93-37 3 0 7 1 10 1l2-4c-38-18-81-24-124-24-46 0-93 7-132 17 76-41 159-83 249-83 49 0 93 12 137 41 26-29 63-46 109-46l2-4c-46-29-102-42-160-42-177 0-336 110-479 202 9-17 14-36 14-55 0-52-34-103-105-103-12 0-26 0-38 4 4 11 5 22 5 34 0 25-7 51-17 72l4 2c15-23 37-35 63-35 29 0 62 17 62 49 0 45-34 70-91 70-66 0-118-41-118-117 0-65 59-129 133-129h18c50 0 92 36 120 74 33-29 61-48 119-62v-6h-28c-64 0-107-16-168-28 61-12 104-28 168-28h28v-6c-58-14-86-33-119-62-28 38-70 74-120 74h-18c-74 0-133-64-133-129 0-76 52-117 118-117 57 0 91 25 91 70 0 32-33 49-62 49-26 0-48-12-63-35l-4 2c10 21 17 47 17 72 0 12-1 23-5 34 12 4 26 4 38 4 71 0 105-51 105-103 0-19-5-38-14-55 143 92 302 202 479 202 58 0 114-13 160-42l-2-4c-46 0-83-18-109-46-44 29-88 41-137 41-90 0-173-42-249-83 39 9 86 17 132 17 43 0 86-6 124-24l-2-4h-10c-34 0-68-14-93-36-31 16-65 30-103 30-135 0-203-113-292-113-86 0-140 59-140 142 0 77 68 142 142 150z m655-4v8c84 0 143 39 219 39 47 0 92-30 122-39v-8c-30-9-75-39-122-39-76 0-135 39-219 39z m-742 0c-33-5-69-44-83-78l-4 2c-7 32-18 73-56 76v8c38 3 49 44 56 76l4 2c14-34 50-73 83-78v-8z" horiz-adv-x="1286" />
<glyph glyph-name="F" unicode="&#xe814;" d="m1503 400c61-30 117-80 117-142 0-8-4-14-7-14-137 110-334 119-510 119h-319c81-22 167-59 252-73-32-25-71-37-111-35 7-21 14-65 5-87-140 142-335 195-523 195h-61c83-18 154-79 242-89-26-36-71-34-114-28 5-31 0-61-12-90-51 113-181 207-304 207-31 0-53-16-53-44 0-36 14-48 34-73-33 1-47-35-51-59-40 39-58 74-58 120 0 35 11 74 46 93-35 19-46 58-46 93 0 46 18 81 58 120 4-24 18-60 51-59-20-25-34-37-34-73 0-28 22-44 53-44 123 0 253 94 304 207 12-29 17-59 12-90 43 6 88 8 114-28-88-10-159-71-242-89h61c188 0 383 53 523 195 9-22 2-66-5-87 40 2 79-10 111-35-85-14-171-51-252-73h319c176 0 373 9 510 119 3 0 7-6 7-14 0-62-56-112-117-142z" horiz-adv-x="1650" />
<glyph glyph-name="G" unicode="&#xe815;" d="m357 480c-27 40-71 66-123 66-80 0-146-66-146-146s66-146 146-146c52 0 96 26 123 66h555c69 0 94-32 94-74 0-38-24-55-52-55s-49 21-49 46c0 9 1 15 4 23-10 4-25 7-59 7h-460c-38-44-94-72-156-72-112 0-204 92-204 205s92 205 204 205c62 0 118-28 156-72h460c34 0 49 3 59 7-3 8-4 14-4 23 0 25 21 46 49 46s52-17 52-55c0-42-25-74-94-74h-555z m-70-106c-9-20-30-33-53-33-32 0-58 27-58 59s26 59 58 59c23 0 44-13 53-33h803c7 16 22 27 38 27s32-11 39-28c26 27 55 77 67 102 20-8 44-27 58-41-21-32-54-68-83-86 29-18 62-54 83-86-14-14-38-33-58-41-12 25-41 74-67 101-7-16-23-27-39-27s-31 11-38 27h-803z m1072 26c-23 20-45 44-60 67 5 9 17 21 25 25 62-76 164-88 260-88v-8c-96 0-198-12-260-88-8 4-20 16-25 25 15 23 37 47 60 67z" horiz-adv-x="1614" />
<glyph glyph-name="H" unicode="&#xe816;" d="m648 253c-1 34-24 49-57 49-37 0-71-13-104-33 9-13 14-30 14-52 0-56-38-96-99-96-32 0-60 11-80 31-43-27-90-46-143-46-77 0-149 52-149 135 0 72 45 111 103 111 50 0 98-33 97-84-1-49-35-74-75-76-19-1-36 12-36 30 0 16 12 30 26 31 10 1 18-12 26-9 8 8 17 14 16 28-2 26-30 39-54 39-43 0-70-26-70-72 0-63 46-107 116-107 46 0 88 17 127 41-10 17-16 37-16 60-1 119 104 158 236 158 199 0 386-66 548-176l-3-5c-56 23-119 13-176-3-86 113-235 158-368 158-98 0-214-19-214-131 0-19 5-35 13-48l31 22c-5 10-7 22-7 36 0 30 26 62 69 62 17 0 35-5 51-17 37 22 77 38 122 38 52 0 92-26 92-79 0-38-26-73-67-73-27 0-61 14-61 52 0 12 10 28 32 28 10 0 21-7 23-19 1-7 7-17 15-17 15 0 22 18 22 34z m0 294c0 16-7 34-22 34-8 0-14-10-15-17-2-12-13-19-23-19-22 0-32 16-32 28 0 38 34 52 61 52 41 0 67-35 67-73 0-53-40-79-92-79-45 0-85 15-122 38-16-12-34-17-51-17-43 0-69 32-69 62 0 14 2 26 7 36-11 7-21 15-31 22-8-13-13-29-13-48 0-112 116-131 214-131 133 0 282 45 368 158 57-16 120-26 176-3l3-5c-162-110-349-176-548-176-132 0-237 39-236 158 0 23 6 43 16 60-39 24-81 41-127 41-70 0-116-44-116-107 0-46 27-72 70-72 24 0 52 13 54 39 1 14-8 20-16 28-8 3-16-10-26-9-14 1-26 15-26 31 0 18 17 31 36 30 40-2 74-27 75-76 1-51-47-84-97-84-58 0-103 39-103 111 0 83 72 135 149 135 53 0 100-20 143-47 20 20 48 32 80 32 61 0 99-40 99-96 0-22-5-39-14-53 33-19 67-32 104-32 33 0 56 15 57 49z m65-143c58 0 209 23 284 74 72-48 196-74 282-74h41v-8h-41c-86 0-210-26-282-74-75 51-226 74-284 74v8z m-312 248c-22 0-42-7-57-19 10-6 20-13 29-20 6 4 14 6 22 6 13 0 23-9 23-24 0-6-1-11-4-14 16-12 32-24 48-35 5 8 8 20 8 36 0 39-24 70-69 70z m-6-471c-8 0-16 2-22 6l-29-21c15-12 35-18 57-18 45 0 69 31 69 70 0 15-3 27-8 36-16-11-32-23-48-35 3-4 4-8 4-14 0-15-10-24-23-24z m-13 63c0-5 4-8 9-10 17 13 34 26 52 38-7 3-15 4-23 4-23 0-38-14-38-32z m38 280c8 0 16 1 23 4-18 12-35 25-52 38-5-3-9-5-9-10 0-18 15-32 38-32z" horiz-adv-x="1350" />
<glyph glyph-name="I" unicode="&#xe817;" d="m513 490c11-25 14-53 15-81 75 1 167 32 222 87 11-30 17-62 17-96s-6-67-17-96c-55 54-147 84-222 86-1-28-4-56-15-81 56-36 142-55 213-54-34-57-89-96-151-105-7 48-27 104-69 145-5-9-11-17-19-24-9 91-129 117-199 117h-19c80-19 159-74 159-168 0-39-27-69-58-93-25-19-74-44-98-56 2 17 7 34 16 49-47 20-83 69-89 118 39-31 67-45 110-45 39 0 62 27 62 60 0 89-97 126-168 126h-67c-35 0-64-27-65-67-29 14-41 54-41 88s12 74 41 88c1-41 30-67 65-67h67c71 0 168 37 168 126 0 33-23 60-62 60-43 0-71-14-110-46 6 50 42 99 89 119-9 14-14 32-16 49 24-12 73-37 98-56 31-24 58-54 58-93 0-94-79-149-159-168h19c70 0 190 26 199 117 8-8 14-16 19-25 42 42 62 98 69 146 62-9 117-48 151-105-71 1-157-19-213-55z" horiz-adv-x="797" />
<glyph glyph-name="J" unicode="&#xe818;" d="m30 38v724l273-272 81 81 31-32-81-81 26-26 82 80 114-112-114-113-82 81-26-27 81-81-31-31-81 81z m300 362l-27 27-27-27 27-27z m-216-161v322l130-130 27 27-196 196v-508l196 195-27 27z m379 161l-51 49-49-49 49-50z m-281 0l-53 53v-106z" horiz-adv-x="586" />
<glyph glyph-name="K" unicode="&#xe819;" d="m511 412l-3 7c104 17 164 79 199 151 28-22 66-29 102-26-72-87-192-118-298-132z m-3-12v4h52c76 0 156 21 210 50 73-39 168-44 272-50v-4-4c-104-6-199-11-272-50-54 29-134 50-210 50h-52v4z m0-19l3 7c106-15 226-45 298-132-36 3-74-4-102-26-35 72-95 134-199 151z m24 199c0 57-34 91-78 91s-71-22-71-67c0-29 22-45 39-45 16 0 22 7 22 17 0 8-4 15-13 15-12 0-19 9-19 20s8 20 19 20c40 0 55-27 55-55 0-35-25-58-61-58-50 0-85 39-85 87 0 67 49 111 116 111 76 0 123-62 123-137 0-93-66-154-169-154-87 0-161 45-211 109l-100-134 100-134c50 64 124 109 211 109 103 0 169-61 169-154 0-75-47-137-123-137-67 0-116 44-116 111 0 48 35 87 85 87 36 0 61-23 61-58 0-28-15-55-55-55-11 0-19 9-19 20s7 20 19 20c9 0 13 7 13 15 0 10-6 17-22 17-17 0-39-16-39-45 0-45 27-67 71-67s78 34 78 91c0 68-39 109-122 109-78 0-143-45-211-147l-169 218 169 218c68-102 133-147 211-147 83 0 122 41 122 109z" horiz-adv-x="1072" />
<glyph glyph-name="L" unicode="&#xe81a;" d="m216 686c46 0 67-53 67-93 0-41-15-82-43-112l37-47 61 79c94 121 153 169 246 169 63 0 112-34 112-108 0-55-39-93-90-93-50 0-81 29-81 71 0 24 11 51 44 51 18 0 33-10 33-31 0-22-12-34-38-35 0-13 13-27 38-27 36 0 57 25 57 65 0 38-29 65-72 65-63 0-108-25-146-78 12-5 25-22 25-38 0-12-8-29-21-29-3 9-12 23-27 23-19 0-29-8-52-37l-63-81 63-81c23-29 33-37 52-37 15 0 24 14 27 23 13 0 21-17 21-29 0-16-13-33-25-38 38-53 83-78 146-78 43 0 72 27 72 65 0 40-21 65-57 65-25 0-38-14-38-27 26-1 38-13 38-35 0-21-15-31-33-31-33 0-44 27-44 51 0 42 31 71 81 71 51 0 90-38 90-93 0-74-49-108-112-108-93 0-152 48-246 169l-61 78-37-47c28-30 43-70 43-111 0-40-21-93-67-93-19 0-37 11-37 34 0 13 9 27 24 27 9 0 20-2 26-13 9 10 11 24 11 45 0 27-10 55-27 76l-125-162h-58v219c21 19 59 27 92 27s62-8 85-22l43 55-43 55c-23-14-52-22-85-22s-71 8-92 27v219h58l125-162c17 21 27 48 27 76 0 21-2 35-11 45-6-11-17-13-26-13-15 0-24 14-24 27 0 23 18 34 37 34z m214-276c0 6 3 13 12 13h22c3 13 9 17 17 19 2-17 15-19 30-19h129c64 0 110 73 92 133 10 2 33 2 59-5 2-48-29-101-71-128h13c46 25 83 59 101 110 17-8 33-21 46-37-26-30-57-65-94-76h35c33 0 65 4 84 21 2-9 4-20 4-30v-1c42 4 79 37 99 52 19-15 64-53 102-53l33 30c27-17 58-32 92-32h5c3 12 12 22 24 22 13 0 24-13 24-29s-11-28-24-28c-12 0-21 8-24 21h-5c-34 0-65-15-92-32l-33 30c-38 0-83-38-102-53-20 15-57 47-99 51 0-10-2-21-4-30-19 17-51 21-84 21h-35c37-11 68-46 94-76-13-16-29-29-46-37-18 51-55 85-101 110h-13c42-27 73-80 71-128-26-7-49-7-59-5 18 60-28 133-92 133h-129c-15 0-28-2-30-19-8 2-14 6-17 19h-22c-9 0-12 7-12 13v20z m-350-116v-114l100 129c-17 9-37 14-60 14-18 0-40-7-40-29z m40 183c23 0 43 5 60 13l-100 130v-114c0-22 22-29 40-29z" horiz-adv-x="1318" />
<glyph glyph-name="a" unicode="&#xe81b;" d="m191 679c31 18 52 15 68-12 14-24 17-55 25-85 6-29 16-69 23-84 11 5 23 8 35 9-2 16-14 56-22 85-9 29-21 58-21 86 0 32 17 44 53 44s53-12 53-44c0-28-13-57-22-86s-20-69-21-85c12-1 24-4 34-9 7 15 17 55 24 84 8 30 11 61 25 85 16 27 37 30 68 12 32-18 40-38 24-65-14-24-39-42-62-64-22-20-52-50-61-63 10-7 18-15 25-25 13 9 43 39 63 61 22 23 40 48 64 62 27 16 47 8 65-24 18-31 15-52-12-68-24-14-55-17-85-25-29-7-69-17-84-24 5-10 8-22 9-34 16 1 56 12 85 21s58 22 86 22c32 0 44-17 44-53s-12-53-44-53c-28 0-57 12-86 21-29 8-69 20-85 22-1-13-4-24-9-35 14-7 55-17 84-23 30-8 61-11 85-25 27-16 30-37 12-68-18-32-38-40-65-24-24 14-42 39-64 62-20 21-50 51-63 60-7-10-15-18-25-25 8-12 39-42 61-62 23-22 48-40 62-64 16-27 8-47-24-65-31-18-52-15-68 12-14 24-17 55-25 85-7 28-17 68-24 83-10-5-22-8-34-9 1-16 12-56 21-84 9-29 22-58 22-86 0-32-17-44-53-44s-53 12-53 44c0 28 12 57 21 86 8 28 20 68 22 84-13 1-24 5-35 10-7-15-17-55-23-84-8-30-11-61-25-85-16-27-37-30-68-12-32 18-40 38-24 65 14 24 39 42 62 64 22 20 52 50 61 62-10 7-19 16-26 26-12-9-42-39-62-61-22-23-40-48-64-62-27-16-47-8-65 24-18 31-15 52 12 68 24 14 55 17 85 25 28 6 68 16 83 23-5 11-8 23-9 35-16-2-56-14-84-22-29-9-58-21-86-21-32 0-44 17-44 53s12 53 44 53c28 0 57-13 86-22 28-9 68-20 84-21 1 12 4 24 9 34-15 7-55 17-83 24-30 8-61 11-85 25-27 16-30 37-12 68 18 32 38 40 65 24 24-14 42-39 64-62 20-22 50-53 62-61 7 10 15 18 25 25-9 13-39 43-60 63-23 22-48 40-62 64-16 27-8 47 24 65z m76-279c0-47 38-85 85-85s85 38 85 85-38 85-85 85-85-38-85-85z m32 0c0 30 23 53 53 53s53-23 53-53-23-53-53-53-53 23-53 53z" horiz-adv-x="704" />
<glyph glyph-name="b" unicode="&#xe81c;" d="m30 417h118c-23 27-44 59-57 105l8 4c29-46 94-86 148-90 12 48 49 85 96 98-4 53-44 118-89 147l4 8c45-13 77-34 105-57v118h34v-118c27 23 59 44 105 57l4-8c-45-29-85-94-90-147 48-13 85-50 98-98 53 5 118 45 147 90l8-4c-13-46-34-78-57-105h118v-34h-118c23-28 44-60 57-105l-8-4c-29 45-94 85-147 89-13-47-50-84-98-96 4-54 44-119 90-148l-4-8c-46 13-78 34-105 57v-118h-34v118c-28-23-60-44-105-57l-4 8c45 29 85 94 89 148-47 12-84 49-96 96-54-4-119-44-148-89l-8 4c13 45 34 77 57 105h-118v34z m259-17c0-51 40-91 91-91s92 40 92 91-41 92-92 92-91-41-91-92z" horiz-adv-x="760" />
<glyph glyph-name="c" unicode="&#xe81d;" d="m361 326c-27 7-49 29-56 56-39-10-144-58-173-91l-9 4c10 24 20 44 33 61-46 13-87 25-126 40v8c39 15 80 26 126 39-13 18-23 38-33 62l9 4c29-33 133-81 173-92 7 28 29 50 56 57-10 40-58 144-91 173l4 8c24-10 44-20 61-32 13 45 25 86 40 126h8c15-40 26-81 39-126 18 12 38 22 62 32l4-8c-33-29-82-134-92-173 28-7 50-29 57-57 40 11 144 59 173 92l8-4c-10-24-20-44-32-62 45-13 86-24 126-39v-8c-40-15-81-27-126-40 12-17 22-37 32-61l-8-4c-29 33-134 81-173 91-7-27-29-49-57-56 10-39 59-144 92-173l-4-9c-24 10-44 20-62 33-13-46-24-87-39-126h-8c-15 39-27 80-40 126-17-13-37-23-61-33l-4 9c33 29 81 133 91 173z" horiz-adv-x="758" />
<glyph glyph-name="d" unicode="&#xe81e;" d="m315 109c0 22 15 41 37 49-117 10-210 103-220 220-8-22-27-37-49-37-29 0-53 27-53 59s24 59 53 59c22 0 41-16 49-37 10 116 103 209 220 220-22 8-37 27-37 49 0 29 27 53 59 53s59-24 59-53c0-22-16-41-37-49 117-11 209-104 220-220 8 21 27 37 49 37 29 0 53-27 53-59s-24-59-53-59c-22 0-41 15-49 37-11-117-103-210-220-220 21-8 37-28 37-49 0-29-27-53-59-53s-59 24-59 53z m-141 291c0-111 89-200 200-200s200 89 200 200-89 200-200 200-200-89-200-200z m116 0c0 47 37 85 84 85s85-38 85-85-38-84-85-84-84 37-84 84z" horiz-adv-x="748" />
<glyph glyph-name="e" unicode="&#xe81f;" d="m43 526l232-103c7 18 21 32 40 39l-103 233c-4 8-2 13 5 13h121 120c8 0 10-5 6-13l-103-233c18-7 32-21 39-39l233 103c8 4 13 2 13-6v-241c0-7-5-9-13-5l-233 103c-7-19-21-33-39-40l103-232c4-8 2-13-6-13h-241c-7 0-9 5-5 13l103 232c-19 7-33 21-40 40l-232-103c-8-4-13-2-13 5v241c0 8 5 10 13 6z m579-126h-217v-1l217-93v94z m-568 0h217l-217 94v-94z m284 284v-217l94 217h-94z m0-568v217l-94-217h94z" horiz-adv-x="676" />
<glyph glyph-name="f" unicode="&#xe820;" d="m309 400v1h-3c-45 0-101-37-154-37-44 0-90 11-122 39l3 5c14-5 27-7 42-7 50 0 91 29 139 29 32 0 66-7 96-19 2 15 10 27 20 37-1 2-2 3-2 3-32 31-98 45-136 82-31 32-55 72-58 114l5 2c7-14 15-25 25-35 36-36 86-43 120-78 21-22 41-51 54-81 11 8 24 13 39 13h1v3c0 45-37 100-37 154 0 44 11 90 39 122l5-3c-5-14-7-27-7-42 0-50 29-91 29-139 0-33-7-66-19-96 15-3 27-10 37-20 2 1 3 2 3 2 31 32 45 98 82 136 32 31 72 55 114 58l2-5c-14-7-25-15-35-25-36-36-43-86-78-120-22-22-51-41-81-54 8-11 13-25 13-39v-1h3c45 0 100 37 154 37 44 0 90-11 122-39l-3-5c-14 5-27 7-42 7-50 0-91-29-139-29-33 0-66 7-96 18-3-14-10-27-20-37l2-2c32-31 98-45 136-82 31-32 55-72 58-114l-5-2c-7 14-15 25-25 35-36 36-86 43-120 78-22 21-41 50-54 80-11-8-25-12-39-12h-1v-3c0-45 37-101 37-154 0-44-11-90-39-122l-5 3c5 14 7 27 7 42 0 50-29 91-29 139 0 32 7 66 18 96-14 2-27 10-37 20l-2-2c-31-32-45-98-82-136-32-31-72-55-114-58l-2 5c14 7 25 15 35 25 36 36 43 86 78 120 21 21 50 41 80 54-8 11-12 24-12 39z" horiz-adv-x="754" />
<glyph glyph-name="u" unicode="&#xe821;" d="m518 293c36 0 76 5 107 26 3 2 5 1 6-2 22-68-23-177-109-177-42 0-92 37-89 83 0 25 12 39 24 56-35 1-81-13-81-59s37-80 72-109c-14-11-31-25-41-39-2-4-5-1-6 2-25 82-108 137-189 168 13-20 23-40 23-64 0-32-21-56-50-56-17 0-27 6-42 11-7 2-33 7-43 11-43 17-60 63-60 107 0 22 5 41 20 61-25 30-30 54-30 87 0 31 18 62 54 62 16 0 29-13 29-29 0-15-3-27-17-34-6-3-11 2-5 6 8 5 12 13 12 25 0 11-7 21-18 21s-27-2-27-18c0-23 10-53 28-72 37-41 84-78 133-100 42-20 84-45 122-68-7 26-10 56-10 87 0 28 2 55 5 79-13 0-56-51-106-51-54 0-87 39-87 96 0 85 67 133 67 177 0 25-26 52-53 52-24 0-45-14-45-45 0-21 15-40 37-40 7 0 12 1 15 2 2 1 3-2 1-4-9-10-21-10-36-10-23 0-41 25-41 50 0 68 53 115 124 115 76 0 175-81 198-165 2-9 6-12 16-13 46-6 91-33 91-90 0-49-29-117-87-117-33 0-45 19-73 33-3-15-4-30-4-45 0-19 3-39 9-60 15 44 55 52 96 52 20 0 41-2 60-2z m-436-21c1-22 31-65 65-74 4-1 24-10 24 1 0 7-5 8-9 9-13 4-32 5-42 12-19 16-25 31-34 53-1 4-4 3-4-1z m380-42c-1-3 2-7 6-9 12-6 21-8 32-8 32 0 52 20 74 43 5 5 1 7-4 4-16-14-32-37-64-37-15 0-21 3-35 11-4 2-8 0-9-4z m-206 329c12-28 19-52 28-82 6-19 10-39 12-59 0-5 9-6 13-2 2 3 0 13 0 16-12 44-30 87-49 128-3 4-6 5-4-1z m11 34c49-50 74-98 100-170 2-5 12-2 12 4 0 5-1 9-3 14-29 62-51 108-106 155-3 2-6 0-3-3z" horiz-adv-x="667" />
<glyph glyph-name="v" unicode="&#xe822;" d="m356 270c-14-16-22-35-22-57 0-44 16-63 90-63 15 0 34 12 44 23 4 2 8-1 4-5-18-20-33-39-40-63-2-7 2-25-9-25-75 0-123 47-123 111 0 48 17 81 33 100 0 11-22 24-35 24-8 0-22-1-27-9 11-11 11-29 11-43 0-32-21-56-49-80-1 1-8 6-5 18 2 7 1 13 0 17-1 3-5 3-5 0 0-19-5-35-20-52-7-8-15-16-24-23-9 5-6 16-5 24 1 5-3 6-5 1-12-18-35-32-54-42-34-18-70-26-85-16 1 7 6 14 7 20 5 37 19 71 48 94 4 3 4 7-1 5-12-5-26-13-36-3 2 2 7 9 9 11 16 27 39 48 68 57 3 1 2 5-1 5-12-1-31-1-36 12 3 5 12 4 17 6 35 11 63 36 101 36 25 0 48-15 55-31 9 9 24 16 39 16 9 0 17-3 25-8-18 31-64 35-89 61-22 22-37 45-65 61-13 8-29 10-42-4-1-1 0-3 1-4 8-6 11-12 11-22s-8-20-20-20c-14 0-26 9-26 24 0 7 5 17 14 21 3 2 9 1 12 5 8 8 16 14 31 14 14 0 26-9 39-15-9 18-25 35-41 47-4 3-7 4-9 3-7-7-15-12-25-12-16 1-28 12-28 28 0 15 13 26 28 26 19 0 28-15 31-31 1-6 10-8 21-18 20-19 31-43 47-66 21-31 52-51 88-66 24-11 41-26 45-52 16 23 35 52 31 81-14-6-29-15-46-15-50 0-75 25-73 57 11 0 21-8 36-8 7 0 6 4 1 6-46 22-100 52-91 109 0 5 2 8 4 8 9-3 16-8 25-11 3-1 7-1 5 4-14 29-23 67-23 101 0 23 2 55 22 69 4-2 7-5 10-8 8-7 47-32 56-37 20-11 38-29 52-49 2-2 5 0 4 4-4 14-7 28-4 42 9-4 22-15 35-23 21-14 37-37 40-61 1-7 5-4 5 2 0 7 1 31 11 33 5-3 8-7 10-10 22-31 55-46 55-96 0-52-29-95-82-94-10 0-24-2-29-5 0-16 1-28-1-41-2-15-8-24-12-37 39 38 88 61 135 108 23 26 19 47 16 89 0 3-4 6-11 6s-13 10-13 14c0 14 8 19 20 19 9 0 18-8 16-17-1-4-2-9-4-15-1-3 0-10 0-14s2-29 2-39c12 27 25 68 19 98-1 6-3 6-7 6-22 0-38 24-38 43 0 23 20 42 46 42 20 0 38-14 39-39 1-18-12-35-25-41-4-2-5-5-5-9 0-56-14-82-36-130 13 13 28 21 47 40 4 4 2 12 6 29 3 13 16 18 28 18 16 0 25-14 25-27 0-16-14-29-30-29-7 0-12 2-21 0-4-1-7-3-10-5-47-36-72-62-115-93-40-28-65-45-88-78 15 7 31 5 57 5 6 0 4 5 6 10 12 31 51 43 84 36 31-7 57-34 74-46 0-7-22-14-29-14s-4-5 0-6c17-4 36-11 46-25-6-15-26-11-38-11-6 0-5-4-1-5 56-16 58-51 69-78-1-9-36-8-54-4-20 4-35 8-46 23-5 6-7-1-5-4 4-7 11-27 4-35-28 14-48 37-62 66-3 6-6 4-6-2 0-9 8-27-4-31-11 9-31 21-39 37-7 13-11 28-11 43 0 10 1 19 5 28-2 1-5 1-8 1-19 0-58-10-71-25z" horiz-adv-x="683" />
<glyph glyph-name="w" unicode="&#xe823;" d="m125 369c57 0 79 9 117 22 38 15 70 40 92 72-5 4-9 8-11 14-6-1-8-7-12-10-53-53-112-85-189-92-5 0-2-6 3-6z m748-34c37 0 62-37 62-74 0-6 1-27-12-27 0 7 2 13 2 20 0 41-27 68-58 68-33 0-58-12-75-28 92-37 152-103 217-170 3-3 14-10 20-13 5-3 5-9 0-10-16-11-39-12-61-12-13 0-21 16-28 30-32 65-102 121-171 148-34-56-82-85-150-85-55 0-98 36-128 81-4 6-8 10-9 11-2 1-4 0-4-2 0-7 1-13-1-18-22 0-34 12-41 20-6 6-7-1-6-4 9-22 9-65-14-79-6 3-12 11-15 17-2 5-4 1-4-3 0-21-6-44-23-59-9 5-7 22-15 22-2 0-4-2-4-4 0-22-5-48-25-61-11 6-19 34-19 45 0 2 0 6-2 6-8 0-10-10-16-14-23 3-20 49-20 64 0 2-3 2-5-1-3-4-9-12-14-15-16 15-6 41 0 51 2 2 1 8-3 4-4-2-9-12-15-11-16 44 23 70 34 83 6 8-6 4-9 2-32-24-101-40-114-19 3 5 7 7 7 12 0 2-2 3-4 2-12-4-54-10-73 18 4 9 16 11 18 15 1 2 0 3-2 3-18-2-50 3-63 27 15 18 31 24 52 25 3 0 3 5 0 6-2 1-12 5-14 7 0 10 14 17 27 22 15 5 34 3 34 7 0 3-11 8-11 18 16 4 43 10 67 10 4 0 7 7 2 7-13 0-52 4-56 21 4 2 10 3 10 8 0 2-1 4-3 4-29 0-34 13-47 21 0 6 11 7 14 10 1 2 0 3-3 3-18 0-38 12-49 27 6 13 35 15 55 15 5 0 3 4 0 5-3 2-8 6-8 11 8 9 26 15 38 9 5-2 10 0 9 2-3 4-6 6-9 8 3 13 27 17 40 17 15 0 21-5 25-5 3 0 4 2 4 3 0 5-6 8-6 11 2 4 6 4 9 4 35 0 50-22 65-30 3-1 3 1 2 4s-3 5-4 8c4 2 7 2 11 0 23-10 36-43 40-67 3-18 6-34 13-53 4 2 9 4 18 4 0 4 3 14 3 16 12 84 5 112 36 134 21 15 52 11 52 7 0-9-9-14-11-23-1-4 2-6 4-4 21 22 72 11 76-5-2-5-11-9-16-13-2-2-2-5 1-5 19 0 56 0 65-26-2-6-11-3-11-8 0-4 4-4 8-6 14-6 33-16 41-34 2-6 6-16 0-25-8-1-26 8-41 8-5 0-9-2-3-7 3-2 6-9 3-13-5-3-20 6-37 6-25 0-48-12-68-24-5-3-4-10 4-7 35 17 103 20 111-9 1-2 1-5 0-6-6-2-18 2-26-1-3-1-3-3 0-5 10-9 24-3 61-23 37 24 61 61 84 95 2 3-1 5-4 5-7 0-13-2-21-5-3-1-4 2-4 4 0 7 7 10 16 12 2 0 4 3 4 5 0 4-3 6-5 9-19 19-15 63-2 65 7-2 3-11 9-11 2 0 3 2 3 4 0 3 1 18 2 22 3 21 15 43 27 38 0-2 0-12 4-12 5 0 11 33 29 33 2 0 4 0 5-2 1-4-3-9-1-12 4-5 31 35 50 34 17-5 11-43 9-56 0-2-1-5 2-5 5 0 9 5 13 7 3 0 5-5 4-10-2-18-15-35-23-44-1-2-2-5 2-5 5 0 8 5 13 3-2-23-24-40-40-51-3-2-1-4 1-4 4-1 7 1 8-4-9-25-41-27-70-22-3 1-5-1-4-3 1-4 4-7 4-12 0-3 0-8-7-8-4 8-8 17-13 22-21-37-46-69-79-99h-1c4-3 24-10 27-26-2-1-7-2-13-3-5-1-8-3 3-7 11-5 28-16 25-28-7 0-12 0-17-1-4-1-3-5-2-8 25-30 67-37 98-55-15 16-24 32-24 60 0 48 44 86 86 97 16 4 16 16 18 28 4 25 21 59 48 59 4 0 6-2 6-4-2-6-2-13 1-13 2 0 4 5 7 10 12 25 44 31 53 23 0-6-2-11-2-18 0-3 2-4 4-3 18 9 61 12 72-4-2-7-8-7-11-12-1-2 1-4 5-4 16 0 56-2 58-25-2-3-9-4-15-9-2-1-1-4 1-4 22 0 35-14 59-14 2 0 3-3 1-4-16-9-37-16-58-16-7 0-8-2-4-5s10-4 14-9c-5-9-35-17-46-17-5 0-2-4 0-5 1-1 4-3 5-4-3-14-34-13-54-5-5 2-6 3-9 3-4 0-5-2-4-5s3-6 6-10c0-2-2-4-8-3-34 6-47 18-63 26-3 1-5 1-4-3s6-5 4-11c-21-6-49 2-63 43-1 3-3 5-5 5-44-5-87-40-87-87 0-19 10-39 42-70 30 23 60 36 97 36z m-116-64c-3 3-6 6-81 40-4 2-8 3-12 3-5 0-21-7-60-7-5 0-7-3-3-5 8-4 22-12 22-14-17-17-59-11-80-4-3 1-4-1-2-5s6-7 8-12c0-4-11-6-15-6-10 0-21 5-32 9 30-46 70-77 117-77 66 0 116 38 138 78z m-190 79c6-2 6 2 5 3-3 3-7 5-10 6-54 21-85 50-124 79-19 15-36 39-58 46-1-5-3-11-6-14 9-9 48-47 59-54 42-29 81-52 134-66z m-258 142c5-3 11-6 13-5 0 7 1 13 5 18-60 33-80 54-193 54-4 0-4-6 0-6 64-8 113-20 175-61z m25-263c13 49 19 105 24 156 3 26 2 49 2 75-3-1-10-2-15-1 0-83-5-158-7-173l-9-57c-1-4 4-3 5 0z m606 258c-20 0-41-1-60-4-6-1-15-3-18-8-2-3 0-6 3-5 8 2 18 7 27 7 15 0 33 5 48 5 19 0 38 0 65-3-1 2-4 3-7 4-9 3-19 4-30 4h-28z m-225 89c-2-3 3-6 6-3 15 15 19 23 30 43 7 12 20 31 25 47 2 8-3 6-5 2l-24-43c-8-16-21-31-32-46z m-345-65c5-4 7-9 9-13 3 0 13 13 18 18 37 44 51 60 89 60 22 0 44-12 57-12 0 11-42 29-73 29-42 0-77-53-100-82z" horiz-adv-x="1142" />
<glyph glyph-name="x" unicode="&#xe824;" d="m39 670c-2 6 3 7 6 2 40-62 107-131 107-211 0-51-9-100-9-153 0-97 79-169 142-232 6-8 2-12-5-8-54 24-109 44-159 76-34 22-47 65-49 104 1 53-16 103-32 152-11 32-10 68-10 90 0 49 15 102 15 140 0 19-2 27-6 40z m453 73c0 5 2 8 5 8 2 0 4-1 5-5 12-57 41-111 41-169 0-110-72-200-142-281-30-35-40-108-40-171 0-16 1-32 2-46 1-11-9-12-11-1-8 44-18 85-32 127-25 71-30 144-30 219 0 148 202 161 202 307v12z m185-265c4 10 10 7 10-2 0-100-54-238-134-278-52-26-142-79-146-117-1-13-11-16-13 0-2 25-3 47-3 73 0 70 30 136 80 180 61 54 169 52 206 144z m-314 217c-32-53-73-104-90-165-5-16-6-41-10-55-8-30-14-58-14-88 0-75 8-71 23-114 15-47 23-72 43-119 9-23 13-52 22-75 3-8-3-12-8-4-32 49-65 82-104 128-13 15-23 34-27 53-16 82-22 139-22 200 0 89 72 167 141 210 5 3 30 20 40 33 5 6 10 2 6-4z" horiz-adv-x="717" />
<glyph glyph-name="y" unicode="&#xe825;" d="m385 37c-3 0-5 2-5 5v10c0 35-40 109-67 135-2 4-2 6 0 10 44 49 54 98 54 164v14c-10 0-21-1-32-1-4-95-41-192-106-257-5-4-10-2-10 4v108c0 5 2 8 7 10 52 16 92 74 92 132v1c-21-2-40-8-59-18-2-1-5 0-4 3 7 21 30 41 58 52-9 45-39 78-87 78-39 0-67-30-67-70 0-45 24-75 80-75 5 0 4-5 2-8-15-23-47-42-91-42-73 0-120 68-120 135 0 84 56 156 150 156s147-78 155-168c11 3 22 4 32 4v19c0 70-22 169-106 169-15 0-28-7-32-12-6-5-10-4-10 0 0 36 29 64 76 64 24 0 49-13 63-31 2-3 6-3 4 2-2 8-9 26-9 51s7 50 21 72c3 5 9 15 11 15s7-10 10-15c14-22 22-47 22-72s-8-43-10-51c-2-5 2-5 4-2 14 18 40 31 63 31 47 0 76-28 76-64 0-4-3-5-9 0-5 5-18 12-32 12-85 0-107-99-107-169v-19c10 0 21-1 32-4 8 90 60 168 155 168 94 0 150-72 150-156 0-67-47-135-120-135-43 0-75 19-91 42-2 3-3 8 2 8 56 0 80 30 80 75 0 40-28 70-66 70-50 0-79-33-89-78 29-11 52-31 59-52 1-3-1-4-3-3-21 10-39 16-59 18v-1c0-58 39-116 92-132 4-2 6-5 6-10v-108c0-6-4-8-9-4-67 65-103 162-108 257-10 0-20 1-31 1v-14c0-66 11-115 54-164 2-4 2-6 0-10-27-26-67-100-67-135v-10c0-3-1-5-4-5z" horiz-adv-x="769" />
<glyph glyph-name="z" unicode="&#xe826;" d="m192 355c-55 0-97-25-97-71 0-14 1-19 4-30s-4-12-10-8c-40 27-59 67-59 117 0 70 52 129 126 129 118 0 176-121 182-222h26v5c0 99-79 172-79 267 0 74 76 136 91 211 1 5 2 19 2 21 0 3 2 5 5 5s5-2 5-5c0-2 1-16 2-21 15-75 91-137 91-211 0-95-79-168-79-267v-5h26c6 101 63 222 182 222 74 0 126-59 126-129 0-50-19-90-59-117-6-4-13-3-10 8s4 16 4 30c0 46-42 71-97 71-53 1-99-36-114-85 31-2 55-18 55-48 0-2-3-4-5-1-9 16-24 19-43 19h-11v-4c0-20 3-47 13-68 2-4 6-6 9-5 5 2 5 8 12 18 5 8 12 13 30 13 21 0 34-17 34-37 0-27-22-46-46-46-61 0-79 76-81 129h-25v-2c2-28 15-52 15-89 0-30-4-55-23-86-3-5-9-15-11-15s-8 10-11 15c-19 31-23 56-23 86 0 37 13 61 15 89v2h-25c-2-53-21-129-81-129-24 0-47 19-47 46 0 20 14 37 35 37 18 0 25-5 30-13 7-10 7-16 12-18 3-1 7 1 9 5 10 21 13 48 13 68v4h-11c-19 0-34-3-43-19-2-3-5-1-5 1 0 30 24 46 54 48-14 49-61 86-113 85z" horiz-adv-x="766" />
<glyph glyph-name="g" unicode="&#xe827;" d="m242 303c-22 24-36 55-37 89-60-9-120-25-154-80l-8-2c-8 29-13 58-13 90s5 61 13 90l8-2c34-56 94-72 154-81 1 34 15 65 37 89-48 37-102 68-165 53l-8 4c15 26 33 51 55 73s47 40 73 55l4-8c-16-63 16-117 52-165 24 21 55 35 89 37-9 60-25 120-80 154l-2 8c29 8 58 13 90 13s61-5 90-13l-2-8c-55-34-72-94-81-154 34-2 65-16 89-37 37 48 68 102 53 165l4 8c26-15 51-33 73-55s40-47 55-73l-8-4c-63 15-117-16-165-53 21-24 35-55 37-89 60 9 120 26 154 81l8 2c8-29 13-58 13-90s-5-61-13-90l-8 2c-34 55-94 71-154 80-2-34-16-65-37-89 48-36 102-68 165-52l8-4c-15-26-33-51-55-73s-47-40-73-55l-4 8c15 63-16 117-53 165-24-22-55-36-89-37 9-60 25-120 81-154l2-8c-29-8-58-13-90-13s-61 5-90 13l2 8c55 34 71 94 80 154-34 1-65 15-89 37-36-48-68-102-52-165l-4-8c-26 15-51 33-73 55s-40 47-55 73l8 4c63-16 117 16 165 52z m4 97c0-58 46-104 104-104s105 46 105 104-47 105-105 105-104-47-104-105z m47 0c0 32 25 57 57 57s57-25 57-57-25-57-57-57-57 25-57 57z" horiz-adv-x="700" />
<glyph glyph-name="h" unicode="&#xe828;" d="m730 396h-10c-43-2-92-17-118-53l-6 1c-30 37-91 47-139 47h-9c-2-12-6-23-13-32l6-7c34-34 84-70 131-65l5-4c-7-44 17-89 46-121l7-7-3-2-2-3-7 7c-32 29-77 53-121 46l-4 5c5 47-31 97-65 131l-6 7c-9-7-21-13-33-14v-9c0-48 10-109 47-139v-6c-35-26-51-75-52-118v-10h-8v10c-1 43-17 92-52 118v6c37 30 47 91 47 139v9c-12 1-24 7-33 14l-6-7c-34-34-70-84-65-131l-4-5c-44 7-89-17-121-46l-7-7-2 3-3 2 7 7c29 32 53 77 46 121l5 4c47-5 97 31 131 65l6 7c-7 9-11 20-13 32h-9c-48 0-109-10-139-47l-6-1c-26 36-75 51-118 53h-10v8h10c43 2 92 17 118 53l6-1c30-37 91-47 139-47h9c2 12 6 23 13 32l-6 7c-34 34-84 70-131 65l-5 4c7 44-17 89-46 121l-7 7 3 2 2 3 7-7c32-29 77-53 121-46l4-5c-5-47 31-97 65-131l6-7c9 7 21 13 33 14v9c0 48-10 109-47 139v6c35 26 51 75 52 118v10h8v-10c1-43 17-92 52-118v-6c-37-30-47-91-47-139v-9c12-1 24-7 33-14l6 7c34 34 70 84 65 131l4 5c44-7 89 17 121 46l7 7 2-3 3-2-7-7c-29-32-53-77-46-121l-5-4c-47 5-97-31-131-65l-6-7c7-9 11-20 13-32h9c48 0 109 10 139 47l6 1c26-36 75-51 118-53h10v-8z" horiz-adv-x="760" />
<glyph glyph-name="M" unicode="&#xe829;" d="m376 643c0 35 27 58 62 58s63-23 63-58c0-29-19-49-46-55 38-105 158-172 294-179 4 31 26 54 58 54 35 0 57-28 57-63s-22-63-57-63c-32 0-54 23-58 53-136-6-256-74-294-178 27-6 46-26 46-55 0-35-28-58-63-58s-62 23-62 58c0 31 21 52 51 56-47 123-206 143-265 143v-104c-62-21-116-76-116-155h-16v606h16c0-79 54-134 116-155v-104c59 0 218 20 265 142-30 4-51 26-51 57z" horiz-adv-x="894" />
<glyph glyph-name="N" unicode="&#xe82a;" d="m843 396c-172 0-199-71-297-71-18 0-36 12-36 33 0 16 9 26 18 32h-68c-23 0-47-16-62-28-18 14-43 28-65 28h-129c176-67 304-195 378-319l-7-6c-66 92-117 148-195 155-35 3-59-6-93-6-36 0-58 27-58 62 0 25 15 51 47 58-43 32-99 53-155 56-4-15-18-26-34-26s-30 11-35 26h-4v-93c26 25 89 18 89-29 0-79-92-111-92-194h-15v652h15c0-83 92-115 92-194 0-47-63-54-89-29v-93h4c5 14 19 26 35 26s30-12 34-26c56 2 112 23 155 56-32 7-47 33-47 58 0 35 22 62 58 62 34 0 58-9 93-6 78 7 129 63 195 155l7-6c-74-124-202-252-378-319h129c22 0 47 14 65 28 15-12 39-28 62-28h68c-9 6-18 16-18 32 0 21 18 33 36 33 98 0 125-71 297-71v-8z" horiz-adv-x="873" />
<glyph glyph-name="O" unicode="&#xe82b;" d="m30 481c23 2 45 5 65 9v51c-36 4-63 31-63 76 0 46 31 75 63 85v54h22v-50h1c70 0 108-50 108-111 0-68-47-105-109-122v-147c62-16 109-54 109-121 0-61-38-111-108-111h-1v-50h-22v54c-32 10-63 39-63 85 0 44 27 71 63 76v51c-20 4-42 7-65 9v162z m132-85v8c76 0 192 50 241 50 47 0 94-40 144-50v-8c-50-10-97-50-144-50-49 0-165 50-241 50z m2 33l-5 6c56 39 112 133 149 159 35 24 90 18 133 37l4-8c-32-32-47-86-80-109-39-25-144-47-201-85z m-5-64l5 6c57-38 162-60 201-85 33-24 48-77 80-109l-4-8c-43 19-98 13-133 37-37 26-93 120-149 159z m44-161c0 53-32 84-86 100v-45c27-3 49-22 49-54 0-25-16-51-49-53v-33h5c48 0 81 38 81 85z m-37 391c0-33-22-51-49-55v-45c54 17 86 47 86 101 0 47-33 84-81 84h-5v-33c33-2 49-27 49-52z m-110-131v-128c13-1 26-2 39-5v137c-13-2-26-3-39-4z m0-282c0-31 17-50 39-59v112c-23-3-39-19-39-53z m0 436c0-34 16-50 39-54v111c-22-8-39-27-39-57z m82-411c0 14-6 25-21 28v-55c13 2 21 12 21 27z m0 385c0 15-8 26-21 28v-55c15 3 21 13 21 27z" horiz-adv-x="577" />
<glyph glyph-name="P" unicode="&#xe82c;" d="m264 606c0 12 8 22 21 22 12 0 22-10 22-22 0-13-10-21-22-21-4 0-7 0-10 1l-162-139c9-12 14-25 15-40h54c42 0 96 12 114 57 36-44 89-56 144-60v-8c-55-4-108-16-144-60-18 45-72 57-114 57h-54c-1-15-6-29-15-40l162-140c3 1 6 2 10 2 12 0 22-8 22-21 0-12-10-22-22-22-13 0-21 10-21 22 0 2 0 5 1 7l-159 143c-14-14-32-22-53-23 1-64 43-114 94-132-50-20-102-57-102-123h-15v668h15c0-66 52-103 102-123-51-18-93-68-94-132 21-1 39-10 53-23l159 142c-1 2-1 5-1 8z" horiz-adv-x="470" />
<glyph glyph-name="i" unicode="&#xe82d;" d="m385 40l-121 120 116 118-112 112-117-116-121 121 121 122 117-118 112 113-116 118 121 121 122-121-118-118 113-113 119 118 120-122-120-121-119 116-113-112 118-118z" horiz-adv-x="771" />
<glyph glyph-name="j" unicode="&#xe82e;" d="m94 339c-35 0-64 26-64 61s29 62 64 62c28 0 53-21 59-49h93c6 59 54 108 114 115v92c-28 6-48 30-48 60 0 35 26 64 61 64s62-29 62-64c0-30-21-54-49-60v-92c60-6 109-55 116-115h90c6 28 31 49 61 49 35 0 63-27 63-62s-28-61-63-61c-30 0-55 20-61 48h-90c-7-60-56-109-116-115v-91c28-6 49-31 49-60 0-35-27-63-62-63s-61 28-61 63c0 29 20 54 48 60v92c-60 6-108 54-114 114h-93c-6-28-31-48-59-48z m382 74c-6 46-44 83-90 89v-89h90z m-90-114c46 5 84 42 90 88h-90v-88z m-26 203c-46-7-81-44-87-89h87v89z m-87-115c6-46 41-82 87-88v88h-87z" horiz-adv-x="746" />
<glyph glyph-name="k" unicode="&#xe82f;" d="m379 748c17-31 40-67 74-83-35-37-51-98-51-149 0-18 0-25 11-31 14-6 21-1 33 11 37 36 66 94 67 146 36-15 79-7 113 5-12-34-20-77-5-113-52-1-109-30-146-67-13-13-17-19-10-34 5-10 13-10 30-10 51 0 112 16 149 51 16-34 52-57 84-74-32-17-68-40-84-74-37 35-98 51-149 51-17 0-25 0-30-10-7-15-3-21 10-34 37-37 94-66 146-67-15-36-7-79 5-113-34 12-77 20-113 5-1 52-30 110-67 146-12 12-19 17-33 11-11-6-11-13-11-31 0-51 16-112 51-149-34-16-57-52-74-83-17 31-40 67-74 83 35 37 51 98 51 149 0 18 0 25-11 31-14 6-21 1-33-11-37-36-66-94-67-146-36 15-79 7-113-5 12 34 20 77 5 113 52 1 109 30 146 67 13 13 17 19 10 34-5 10-13 10-30 10-51 0-112-16-149-51-16 34-52 57-84 74 32 17 68 40 84 74 37-35 98-51 149-51 17 0 25 0 30 10 7 15 3 21-10 34-37 37-94 66-146 67 15 36 7 79-5 113 34-12 77-20 113-5 1-52 30-110 67-146 12-12 19-17 33-11 11 6 11 13 11 31 0 51-16 112-51 149 34 16 57 52 74 83z" horiz-adv-x="758" />
<glyph glyph-name="l" unicode="&#xe830;" d="m216 121c0 35 27 60 62 63-1 93-59 199-116 202-5-34-29-59-64-59-40 0-68 33-68 73s28 73 68 73c35 0 59-26 64-59 57 2 115 109 116 201-35 4-62 28-62 64 0 38 32 65 70 65s70-27 70-65c0-36-28-60-62-64 1-92 59-199 116-201 5 33 28 59 64 59 40 0 68-33 68-73s-28-73-68-73c-36 0-59 25-64 59-57-3-115-109-116-202 34-3 62-28 62-63 0-38-32-65-70-65s-70 27-70 65z" horiz-adv-x="572" />
<glyph glyph-name="m" unicode="&#xe831;" d="m220 278l-190-118v480l190-118-118 190h480l-118-190 190 118v-480l-190 118 118-190h-480z m57 57l-143-232h416l-143 232 232-143v416l-232-143 143 232h-416l143-232-232 143v-416z m-104 339h338l-144-232c7-4 13-10 17-17l232 144v-338l-234 144c-4-6-9-12-16-15l145-234h-338l145 234c-7 4-12 9-16 16l-234-145v338l233-144c3 7 9 13 15 17z" horiz-adv-x="684" />
<glyph glyph-name="S" unicode="&#xe832;" d="m30 762l309-308h-232v90h45v-45h78l-155 155v-232h325l51 51 66-73-66-73-51 50h-325v-231l155 155h-78v-45h-45v90h232l-309-308v724z" horiz-adv-x="547" />
<glyph glyph-name="R" unicode="&#xe833;" d="m269 543c109-73 224 86 272 179 24-23 96-85 121-112-105-34-180-148-293-166h404c56 0 97 29 120 77h7v-242h-7c-23 48-64 77-120 77h-404c113-18 188-132 293-166-25-27-97-89-121-112-48 93-163 251-272 179v286z m-35-295c0-29-1-51 19-61v-8c-33-2-86-25-95-61h-8v564h8c9-36 62-59 95-61v-8c-20-10-19-32-19-61v-304z m370 37c0 22 18 40 40 40 21 0 39-18 39-40 0-21-18-39-39-39-22 0-40 18-40 39z m0 230c0 21 18 39 40 39 21 0 39-18 39-39 0-22-18-40-39-40-22 0-40 18-40 40z m-495-115c0-22-18-39-40-39-21 0-39 17-39 39s18 39 39 39c22 0 40-17 40-39z" horiz-adv-x="930" />
<glyph glyph-name="Q" unicode="&#xe834;" d="m977 396h-46c-82 0-207-49-263-136-62 76-155 130-255 130h-72c68-16 136-65 136-147 0-105-81-157-165-157-80 0-132 44-159 88l6 5c25-28 49-44 92-44 69 0 108 52 108 118 0 73-44 123-112 123-52 0-84-23-119-62l-98 86 98 86c35-39 67-62 119-62 68 0 112 50 112 123 0 66-39 118-108 118-43 0-67-16-92-44l-6 5c27 44 79 88 159 88 84 0 165-52 165-157 0-82-68-131-136-147h72c100 0 193 54 255 130 56-87 181-136 263-136h46v-8z" horiz-adv-x="1007" />
</font>
</defs>
</svg>
